<svg width="329" height="93" viewBox="0 0 329 93" xmlns="http://www.w3.org/2000/svg">
<g fill="none" fill-rule="evenodd">
<g fill="#EC6608">
<path d="M171.949 75.242v2.355h7.318v13.785h3.12V77.597h7.321v-2.355zM191.69 75.242v16.14h16.387v-2.378h-13.269v-4.798h12.58v-2.355h-12.58v-4.254h13.11v-2.355zM220.815 91.733c-1.516 0-2.925-.19-4.229-.568-1.303-.378-2.437-.928-3.397-1.647a7.791 7.791 0 0 1-2.258-2.65c-.547-1.048-.82-2.232-.82-3.557 0-.958.212-1.938.634-2.932.423-.996 1.072-1.902 1.943-2.716.873-.814 1.983-1.48 3.331-1.997 1.348-.516 2.946-.774 4.796-.774 1.18 0 2.3.12 3.358.36a9.606 9.606 0 0 1 2.866 1.136 7.938 7.938 0 0 1 2.22 2.006c.625.822 1.105 1.807 1.44 2.955h-3.197c-.247-.742-.581-1.37-1.004-1.887a5.286 5.286 0 0 0-1.507-1.266 6.866 6.866 0 0 0-1.929-.719 10.66 10.66 0 0 0-2.247-.23c-1.161 0-2.211.162-3.145.48-.934.321-1.727.758-2.378 1.31a5.776 5.776 0 0 0-1.507 1.93 5.337 5.337 0 0 0-.528 2.344c0 .83.158 1.612.477 2.346a5.255 5.255 0 0 0 1.427 1.92c.632.546 1.422.978 2.365 1.297.941.321 2.038.48 3.29.48 1.796 0 3.307-.41 4.531-1.231 1.225-.822 2.031-2.098 2.418-3.829h3.12a8.586 8.586 0 0 1-.992 2.836 8.125 8.125 0 0 1-2.021 2.378c-.847.683-1.86 1.224-3.04 1.625-1.181.4-2.52.6-4.017.6M249.173 91.383v-7.286h-11.972v7.286h-3.118V75.241h3.118v6.5h11.972v-6.5h3.12v16.142zM271.532 91.383l-12.157-11.91v11.91h-3.12V75.241h2.934l12.157 11.912V75.24h3.12v16.142zM278.402 91.383h3.065V75.241h-3.065zM295.371 91.733c-1.516 0-2.924-.19-4.228-.568-1.304-.378-2.437-.928-3.398-1.647a7.791 7.791 0 0 1-2.258-2.65c-.547-1.048-.82-2.232-.82-3.557 0-.958.212-1.938.634-2.932.423-.996 1.072-1.902 1.943-2.716.873-.814 1.984-1.48 3.331-1.997 1.348-.516 2.946-.774 4.796-.774 1.18 0 2.3.12 3.358.36a9.606 9.606 0 0 1 2.866 1.136 7.938 7.938 0 0 1 2.22 2.006c.625.822 1.105 1.807 1.44 2.955h-3.197c-.247-.742-.58-1.37-1.004-1.887a5.286 5.286 0 0 0-1.507-1.266 6.866 6.866 0 0 0-1.928-.719 10.66 10.66 0 0 0-2.248-.23c-1.161 0-2.21.162-3.145.48-.933.321-1.727.758-2.378 1.31a5.776 5.776 0 0 0-1.507 1.93 5.337 5.337 0 0 0-.527 2.344c0 .83.157 1.612.476 2.346a5.255 5.255 0 0 0 1.427 1.92c.632.546 1.422.978 2.365 1.297.942.321 2.039.48 3.29.48 1.797 0 3.307-.41 4.532-1.231 1.224-.822 2.03-2.098 2.418-3.829h3.12a8.586 8.586 0 0 1-.993 2.836 8.125 8.125 0 0 1-2.021 2.378c-.847.683-1.86 1.224-3.04 1.625-1.181.4-2.52.6-4.017.6M316.988 91.733c-3.205 0-5.542-.572-7.003-1.712-1.463-1.143-2.194-2.811-2.194-5.007h3.118c0 .742.103 1.385.304 1.93.203.545.537.996 1.004 1.351.467.357 1.085.623 1.85.797.767.175 1.705.262 2.815.262 1.04 0 1.889-.076 2.55-.23.661-.151 1.181-.348 1.56-.588.38-.24.639-.504.781-.797.14-.29.21-.58.21-.87 0-.263-.035-.5-.106-.71-.07-.211-.237-.403-.5-.578-.266-.174-.667-.338-1.204-.491-.537-.154-1.264-.31-2.18-.47l-3.383-.587a20.994 20.994 0 0 1-2.723-.623c-.775-.24-1.426-.537-1.955-.894-.528-.357-.925-.786-1.19-1.287-.262-.5-.397-1.095-.397-1.778 0-.699.186-1.327.556-1.887.37-.56.898-1.04 1.585-1.44.689-.399 1.516-.704 2.486-.915.968-.21 2.042-.317 3.223-.317 1.2 0 2.314.102 3.344.306 1.03.205 1.923.542 2.682 1.013a5.357 5.357 0 0 1 1.81 1.854c.449.765.701 1.707.752 2.826h-3.116a5.714 5.714 0 0 0-.28-1.429 2.652 2.652 0 0 0-.777-1.156c-.37-.328-.887-.586-1.547-.774-.66-.19-1.511-.285-2.551-.285-1.04 0-1.88.067-2.522.198-.646.13-1.143.301-1.494.512-.353.21-.587.45-.7.72-.116.269-.173.535-.173.797s.03.493.093.696c.06.205.21.393.45.568.237.174.59.336 1.057.48.467.146 1.104.283 1.915.414l3.726.59c.918.144 1.767.326 2.55.545.784.218 1.464.504 2.035.861.573.357 1.017.794 1.334 1.308.32.518.477 1.146.477 1.888 0 .612-.145 1.211-.435 1.8-.29.588-.76 1.112-1.4 1.57-.644.459-1.494.829-2.552 1.113-1.057.283-2.351.426-3.885.426"/>
</g>
<g fill="#1D8649">
<path d="M6.83 8.802v17.271h19.347v6.011H6.83v28.773H.408V2.79h26.386v6.013zM37.25 2.79h30.084v6.013H43.672v17.271h22.967v6.011H43.672V54.84h23.662v6.012H37.249zM84.828 35.421h1.62l17.554 25.437h7.907L93.46 34.886c8.936-.776 14.518-7.12 14.518-16.062 0-13.106-10.2-16.034-21.223-16.034h-8.35v58.068h6.423V35.42zm0-26.619h1.927c7.785 0 14.8.925 14.8 10.485 0 9.019-7.4 10.406-14.722 10.406h-2.005V8.803zM126.602 35.421h1.619l17.554 25.437h7.907l-18.449-25.972c8.936-.776 14.518-7.12 14.518-16.062 0-13.106-10.2-16.034-21.221-16.034h-8.351v58.068h6.423V35.42zm0-26.619h1.928c7.783 0 14.798.925 14.798 10.485 0 9.019-7.4 10.406-14.722 10.406h-2.004V8.803zM222.263 60.857h-6.423V8.802h-14.028V2.789h34.632v6.013h-14.181zM243.099 2.79h30.084v6.013h-23.661v17.271h22.967v6.011h-22.967V54.84h23.661v6.012H243.1zM328.49 15.545c-4.626-4.764-11.02-7.68-17.726-7.68-12.95 0-23.432 11.212-23.432 23.957 0 12.746 10.56 23.956 23.586 23.956 6.552 0 12.946-3.073 17.571-7.678v7.983c-5.009 3.627-11.175 5.707-17.341 5.707-16.416 0-30.239-13.308-30.239-29.737 0-16.586 13.593-30.2 30.239-30.2 6.473 0 12.177 1.85 17.341 5.703v7.989zM180.356 15.106l19.118 45.752h7.17L180.507 0l-26.825 60.858h7.092z"/>
</g>
<path fill="#F7505E" d="M190.07 49.891h-19.66l9.945-23.278z"/>
</g>
</svg>
