<svg xmlns="http://www.w3.org/2000/svg" viewBox="0 0 343 178.7"><style>.st0{fill:#28348a}.st1{fill:url(#SVGID_1_)}.st2{fill:url(#SVGID_2_)}.st3{fill:url(#SVGID_3_)}</style><path class="st0" d="M74.1 162.5c0 1.6-3.2 4.1-7.9 4.1s-7.7-2.1-7.7-4.1v-7.3c0-1.1 3-3.4 7.7-3.4s7.9 2.4 7.9 3.4v7.3zm9.7 0v-7.3c0-2.7-5.8-7.3-17.4-7.3-11.9 0-17.5 4.9-17.5 7.3v7.3c0 3.6 6.6 7.7 17.5 7.7 10.8 0 17.4-3.7 17.4-7.7zM135.1 169.7h-5.6c-1.4 0-2.2-.4-2.2-1v-12.3c0-2.1-2.5-4.4-7.3-4.4-4.7 0-7.7 2.2-7.7 4.6v12.1c0 .6-.8 1-2.2 1h-5.4c-1.4 0-2.2-.4-2.2-1v-19c0-.6.8-1 2.2-1h4.3c.8 0 1.2.2 1.5.7.3.4.6.6.9.6.4 0 5.6-2.1 10.6-2.1 8.5 0 15.1 3.2 15.1 7.9v12.9c0 .7-.6 1-2 1zM180.4 156.9c0 .3-.4.5-1.1.5h-13.2c-.7 0-1.1-.2-1.1-.5v-1.3c0-2.5 2.8-4 8.1-4 5.5 0 7.2 2 7.2 4v1.3zm9.8 2.6V156c0-4-5.3-8.2-17-8.2-10.9 0-17.9 4.5-17.9 8.2v7c0 3.7 7.1 7.4 18.8 7.4 9 0 13.5-2.2 14.8-3 .9-.5 1.4-1.1.5-1.5l-3.1-1.2c-.9-.4-1.7-.2-2.3.1-1.3.5-5.5 1.6-9.9 1.6-4.3 0-9-1.6-9-3.2v-1.1c0-.5.2-.7.7-.7h20c2.7.1 4.4-.6 4.4-1.9zM234 162.5c0 1.6-2.9 3.8-7.6 3.8-4.7 0-8.1-2.2-8.1-3.8v-6.9c0-2.1 3.6-3.9 8.3-3.9 4.7 0 7.5 1.7 7.5 3.9v6.9zm9.5.1v-6.9c0-4.4-6.1-7.8-17-7.8-11.3 0-17.9 3.9-17.9 7.8v22c0 .6.6 1 2.1 1h5.8c1.4 0 2.2-.4 2.2-1v-7.8c0-1.1.3-1 1.5-.6 1.7.5 3.6.9 6.3.9 10.9 0 17-3.5 17-7.6zM286.1 163.5c0 1.9-3.5 3.1-7.7 3.1-4.4 0-8.2-1.2-8.2-3V162c0-1.7 4-3.3 8.3-3.3 4.7 0 7.7 1.5 7.7 3.2v1.6zm9.2 5.3v-13c0-4.6-6.1-7.9-16.3-7.9-2.1 0-4.1.2-6.5.7-2.3.3-5.1.9-6.1 1.3s-1.9.6-1.1 1.2l2.8 2.1c.8.5 1.5.1 2.6-.2 3.1-.7 5.3-1 8.5-1 5.1 0 6.7 2.3 7.1 3.3.1.4-.1.8-.5.7-.5-.1-4.6-.6-6.8-.6-8.7 0-18.3 2.5-18.3 6.5v1.4c0 4.1 9 6.9 18.2 6.9 4.4 0 7.6-1.5 8-1.5.4 0 .7.3 1 .5.2.1 1 .3 1 .4h4.3c1.4.1 2.1-.1 2.1-.8zM340.5 151.9c-1 .8-1.5.6-2.4.5-1.2-.2-1.7-.5-4.8-.5-5 0-7.8 2.4-7.8 3.9v12.8c0 .6-.8 1-2.2 1h-5.4c-1.4 0-2.2-.4-2.2-1v-12.8c0-3.9 6.3-7.9 17.2-7.9 5.5 0 8.3 1.1 9.3 1.5 1 .4.9.5.2 1.1l-1.9 1.4zM16.9 170.2c-5.1 0-12-1-16.4-4-1-.7-.4-1.1.3-1.3.7-.2 3.4-1 4.4-1 .8 0 5.1 2.6 11.5 2.6 1.4 0 6.7-.8 6.7-2.9 0-1.7-4-1.8-4-1.8l-8.5-.5c-3.8-.2-9.9-1.3-9.9-5.8 0-6.1 10.9-7.5 16.1-7.5 6.7 0 12.1 2 13.1 2.5.9.5 0 .9-.5 1.2-.4.2-2.5 1.6-3.4 1.6-1.2 0-3.8-1.8-8.7-1.8-2.5 0-6.9 1-6.9 3.1 0 1.4 2.9 1.7 2.9 1.7l8.6.3c5.2.2 10.9 2 10.9 6.3-.1 5.9-10.7 7.3-16.2 7.3z"/><linearGradient id="SVGID_1_" gradientUnits="userSpaceOnUse" x1="-3647.06" y1="-1959.376" x2="-3550.56" y2="-1940.876" gradientTransform="translate(7296.283 3885.19) scale(1.9634)"><stop offset="0" stop-color="#28348a"/><stop offset=".161" stop-color="#263a8f"/><stop offset=".384" stop-color="#1f4c9e"/><stop offset=".644" stop-color="#146ab7"/><stop offset=".93" stop-color="#0493d9"/><stop offset="1" stop-color="#009ee2"/></linearGradient><path class="st1" d="M237.1 20.8c-51.8-9.7-96.4-1.6-99.6 18.1-3.2 19.7 36.2 43.6 88.1 53.3 51.8 9.7 96.4 1.6 99.6-18.1 3.1-19.7-36.3-43.6-88.1-53.3zm-7.8 65.5c-36.4-7.6-64-27-61.7-43.3 2.4-16.4 33.9-23.5 70.3-15.9s69 27.9 66.6 44.2c-2.3 16.3-38.8 22.6-75.2 15z"/><linearGradient id="SVGID_2_" gradientUnits="userSpaceOnUse" x1="-2418.496" y1="-2607.951" x2="-2441.424" y2="-2586.427" gradientTransform="translate(10020.962 10469.353) scale(4.0117)"><stop offset="0" stop-color="#28348a"/><stop offset=".153" stop-color="#263a8f"/><stop offset=".366" stop-color="#1f4c9e"/><stop offset=".614" stop-color="#156ab6"/><stop offset=".887" stop-color="#0793d7"/><stop offset="1" stop-color="#00a6e6"/></linearGradient><path class="st2" d="M242.2 34.3c-29.4 28.9-42.9 62.6-30.1 75.2 12.8 12.6 47-.6 76.4-29.5 29.4-28.9 42.9-62.6 30.1-75.2-12.8-12.6-47.1.6-76.4 29.5zm40.7 41.2c-21.7 21.5-48.9 33-58 22.1-9.1-10.9 3.4-40.1 25.1-61.6 21.7-21.5 46.7-30.1 55.8-19.2 9.1 10.9-1.2 37.1-22.9 58.7z"/><linearGradient id="SVGID_3_" gradientUnits="userSpaceOnUse" x1="-3647.06" y1="-1959.376" x2="-3550.56" y2="-1940.876" gradientTransform="translate(7296.283 3885.19) scale(1.9634)"><stop offset="0" stop-color="#28348a"/><stop offset=".161" stop-color="#263a8f"/><stop offset=".384" stop-color="#1f4c9e"/><stop offset=".644" stop-color="#146ab7"/><stop offset=".93" stop-color="#0493d9"/><stop offset="1" stop-color="#009ee2"/></linearGradient><path class="st3" d="M246.5 88.9c-5.6-.5-11.4-1.4-17.2-2.6-36.4-7.6-64-27-61.7-43.3 2.4-16.4 33.9-23.5 70.3-15.9 13.5 2.8 26.4 7.3 37.2 12.8l3.4-7.3c-12.3-4.8-26.4-8.9-41.5-11.7-51.8-9.7-96.4-1.6-99.6 18.1-3.2 19.7 36.2 43.6 88.1 53.3 6.5 1.2 12.8 2.2 19 2.8l2-6.2z"/></svg>
