<svg xmlns="http://www.w3.org/2000/svg" viewBox="0 0 200 200"><title>icon-document</title><path fill="#fff" d="M0 0h200v200H0z"/><path d="M115.1 31.9H62.2A10.1 10.1 0 0 0 52.1 42v116a10.1 10.1 0 0 0 10.1 10.1h75.6a10.1 10.1 0 0 0 10.1-10V67.2l-30.2-35.3zm-2.5 5H62.1a5.1 5.1 0 0 0-5 5.1v116a5.1 5.1 0 0 0 5.1 5.1h75.6a5.1 5.1 0 0 0 5.1-5.1V72.3h-20.2a10.1 10.1 0 0 1-10.1-10.2V36.9zm5.1 2.6v22.6a5 5 0 0 0 5 5.1h18.7l-23.7-27.7zM67.2 67.2v5.1h25.2v-5.1zm0-15.1v5h35.3v-5zm0 30.2v5.1h65.6v-5.1zm0 15.2v5h50.5v-5zm0 15.1v5.1h65.6v-5.1zm0 15.1v5.1h45.4v-5.1zm0 15.2v5h65.6v-5z" fill="#929292" fill-rule="evenodd"/></svg>